<?xml version="1.0" encoding="UTF-8"?>
<!DOCTYPE svg PUBLIC "-//W3C//DTD SVG 1.1//EN" "http://www.w3.org/Graphics/SVG/1.1/DTD/svg11.dtd">
<svg xmlns="http://www.w3.org/2000/svg" version="1.1" width="512px" height="512px" style="shape-rendering:geometricPrecision; text-rendering:geometricPrecision; image-rendering:optimizeQuality; fill-rule:evenodd; clip-rule:evenodd" xmlns:xlink="http://www.w3.org/1999/xlink">
<g><path style="opacity:0.917" fill="#000000" d="M 239.5,55.5 C 277.673,52.6102 310.506,64.2769 338,90.5C 339.955,98.7913 336.788,102.291 328.5,101C 287.979,65.4976 243.979,60.4976 196.5,86C 189.928,89.9025 183.928,94.5691 178.5,100C 169.319,103.325 165.485,100.158 167,90.5C 187.363,70.9012 211.53,59.2346 239.5,55.5 Z"/></g>
<g><path style="opacity:0.914" fill="#000000" d="M 242.5,97.5 C 266.772,95.6037 288.272,102.27 307,117.5C 308.833,126.333 305.333,129.833 296.5,128C 271.99,110.071 245.99,107.738 218.5,121C 214.89,122.944 211.557,125.277 208.5,128C 199.721,129.888 196.221,126.388 198,117.5C 210.997,106.582 225.831,99.9149 242.5,97.5 Z"/></g>
<g><path style="opacity:0.905" fill="#000000" d="M 244.5,136.5 C 252.971,136.05 261.304,136.883 269.5,139C 275.378,140.197 278.212,143.697 278,149.5C 277.426,151.492 276.259,152.992 274.5,154C 267.162,153.506 259.829,152.673 252.5,151.5C 246.028,151.492 239.862,152.825 234,155.5C 226.214,152.158 225.048,147.324 230.5,141C 235.184,139.17 239.851,137.67 244.5,136.5 Z"/></g>
<g><path style="opacity:0.929" fill="#000000" d="M 163.5,177.5 C 200.864,177.045 238.197,177.545 275.5,179C 281.489,180.552 287.156,182.885 292.5,186C 312.5,199 332.5,212 352.5,225C 388.406,224.152 423.073,230.152 456.5,243C 463.276,245.554 469.609,248.887 475.5,253C 477.727,255.564 479.561,258.397 481,261.5C 482.117,269.26 482.617,277.093 482.5,285C 482.333,291.833 482.167,298.667 482,305.5C 479.386,316.448 472.552,322.948 461.5,325C 453.479,325.168 445.479,325.668 437.5,326.5C 434.252,332.664 430.752,338.664 427,344.5C 424.559,346.969 421.726,348.802 418.5,350C 398.167,350.667 377.833,350.667 357.5,350C 354.098,348.6 351.264,346.433 349,343.5C 345.833,337.833 342.667,332.167 339.5,326.5C 282.17,325.333 224.836,325.167 167.5,326C 163.934,331.242 160.767,336.742 158,342.5C 155.408,345.762 152.241,348.262 148.5,350C 128.167,350.667 107.833,350.667 87.5,350C 84.2409,348.789 81.4075,346.956 79,344.5C 75.6265,338.252 72.1265,332.085 68.5,326C 62.1667,325.667 55.8333,325.333 49.5,325C 38.4477,322.948 31.6144,316.448 29,305.5C 28.8333,295.5 28.6667,285.5 28.5,275.5C 28.3667,264.432 28.8667,253.432 30,242.5C 32.4499,237.716 35.9499,233.883 40.5,231C 65.5,222.667 90.5,214.333 115.5,206C 125.428,195.736 136.761,187.403 149.5,181C 154.295,179.801 158.962,178.634 163.5,177.5 Z M 162.5,192.5 C 198.168,192.333 233.835,192.5 269.5,193C 273.637,193.934 277.637,195.268 281.5,197C 296.167,206.333 310.833,215.667 325.5,225C 292.5,225.667 259.5,225.667 226.5,225C 196.399,219.713 166.399,214.046 136.5,208C 143.596,200.044 152.263,194.878 162.5,192.5 Z M 118.5,220.5 C 154.499,226.933 190.499,233.433 226.5,240C 277.833,240.333 329.167,240.667 380.5,241C 409.725,242.556 437.391,249.889 463.5,263C 467.065,266.429 468.565,270.596 468,275.5C 452.75,265.411 435.917,261.078 417.5,262.5C 409.135,262.522 400.802,263.022 392.5,264C 371.451,267.41 350.451,271.076 329.5,275C 298.507,278.211 267.507,278.211 236.5,275C 207.116,272.106 177.783,268.772 148.5,265C 137.638,256.488 125.305,251.488 111.5,250C 88.8333,249.667 66.1667,249.333 43.5,249C 44.5,246.667 46.1667,245 48.5,244C 71.9788,236.23 95.3121,228.396 118.5,220.5 Z M 42.5,264.5 C 67.5436,264.048 92.5436,264.548 117.5,266C 125.169,268.002 132.169,271.335 138.5,276C 153.167,287.333 167.833,298.667 182.5,310C 138.5,310.667 94.5,310.667 50.5,310C 45.6166,307.736 43.1166,303.902 43,298.5C 42.5001,287.172 42.3335,275.838 42.5,264.5 Z M 173.5,283.5 C 211.198,288.128 249.031,291.128 287,292.5C 300.852,291.952 314.685,291.118 328.5,290C 347.565,287.054 366.565,283.72 385.5,280C 403.517,276.662 421.517,276.329 439.5,279C 451.846,281.162 461.513,287.329 468.5,297.5C 468.223,303.226 465.556,307.393 460.5,310C 375.833,310.667 291.167,310.667 206.5,310C 195.43,301.147 184.43,292.314 173.5,283.5 Z M 85.5,326.5 C 106.67,325.172 128.004,325.172 149.5,326.5C 148.067,330.418 145.734,333.585 142.5,336C 125.833,336.667 109.167,336.667 92.5,336C 90.0235,332.855 87.6902,329.688 85.5,326.5 Z M 356.5,325.5 C 377.836,325.333 399.169,325.5 420.5,326C 418.893,329.896 416.559,333.229 413.5,336C 396.833,336.667 380.167,336.667 363.5,336C 360.305,333.119 357.971,329.619 356.5,325.5 Z"/></g>
<g><path style="opacity:0.903" fill="#000000" d="M 84.5,369.5 C 86.8568,369.337 89.1902,369.503 91.5,370C 93.3333,370.5 94.5,371.667 95,373.5C 95.6667,384.833 95.6667,396.167 95,407.5C 92.487,411.212 88.987,412.378 84.5,411C 82.2324,409.442 81.0657,407.276 81,404.5C 80.3333,395.167 80.3333,385.833 81,376.5C 81.1328,373.596 82.2995,371.262 84.5,369.5 Z"/></g>
<g><path style="opacity:0.906" fill="#000000" d="M 114.5,369.5 C 119.439,368.352 122.939,370.019 125,374.5C 125.667,399.833 125.667,425.167 125,450.5C 122.087,455.689 117.92,456.856 112.5,454C 111.874,453.25 111.374,452.416 111,451.5C 110.333,425.5 110.333,399.5 111,373.5C 111.69,371.65 112.856,370.316 114.5,369.5 Z"/></g>
<g><path style="opacity:0.897" fill="#000000" d="M 143.5,369.5 C 145.857,369.337 148.19,369.503 150.5,370C 152.333,370.5 153.5,371.667 154,373.5C 154.667,384.833 154.667,396.167 154,407.5C 151.487,411.212 147.987,412.378 143.5,411C 141.951,409.786 140.785,408.286 140,406.5C 139.333,395.833 139.333,385.167 140,374.5C 140.997,372.677 142.164,371.01 143.5,369.5 Z"/></g>
<g><path style="opacity:0.894" fill="#000000" d="M 355.5,369.5 C 360.487,368.349 363.987,370.016 366,374.5C 366.667,385.167 366.667,395.833 366,406.5C 363.133,411.687 358.967,412.854 353.5,410C 352.874,409.25 352.374,408.416 352,407.5C 351.333,396.167 351.333,384.833 352,373.5C 352.69,371.65 353.856,370.316 355.5,369.5 Z"/></g>
<g><path style="opacity:0.965" fill="#000000" d="M 384.5,369.5 C 386.857,369.337 389.19,369.503 391.5,370C 393.333,370.5 394.5,371.667 395,373.5C 395.667,399.5 395.667,425.5 395,451.5C 392.487,455.212 388.987,456.378 384.5,455C 383.667,454.167 382.833,453.333 382,452.5C 381.333,425.833 381.333,399.167 382,372.5C 383.045,371.627 383.878,370.627 384.5,369.5 Z"/></g>
<g><path style="opacity:0.897" fill="#000000" d="M 414.5,369.5 C 419.439,368.352 422.939,370.019 425,374.5C 425.667,385.167 425.667,395.833 425,406.5C 422.087,411.689 417.92,412.856 412.5,410C 411.874,409.25 411.374,408.416 411,407.5C 410.333,396.167 410.333,384.833 411,373.5C 411.69,371.65 412.856,370.316 414.5,369.5 Z"/></g>
</svg>
